<?xml version="1.0" encoding="UTF-8" ?>
<svg version="1.1" width="16" height="16" xmlns="http://www.w3.org/2000/svg" shape-rendering="crispEdges">
<rect x="4" y="2" width="8" height="1" fill="#000000" />
<rect x="3" y="3" width="1" height="1" fill="#000000" />
<rect x="4" y="3" width="8" height="3" fill="#FBF7F7" />
<rect x="12" y="3" width="1" height="1" fill="#000000" />
<rect x="2" y="4" width="1" height="5" fill="#000000" />
<rect x="3" y="4" width="1" height="4" fill="#FBF7F7" />
<rect x="12" y="4" width="1" height="4" fill="#FBF7F7" />
<rect x="13" y="4" width="1" height="5" fill="#000000" />
<rect x="4" y="6" width="2" height="1" fill="#FBF7F7" />
<rect x="6" y="6" width="4" height="1" fill="#E0E0E0" />
<rect x="10" y="6" width="2" height="1" fill="#FBF7F7" />
<rect x="4" y="7" width="8" height="1" fill="#8F00FF" />
<rect x="3" y="8" width="10" height="1" fill="#000000" />
<rect x="1" y="9" width="1" height="1" fill="#000000" />
<rect x="2" y="9" width="12" height="1" fill="#A0DCFF" />
<rect x="14" y="9" width="1" height="1" fill="#000000" />
<rect x="2" y="10" width="1" height="1" fill="#000000" />
<rect x="3" y="10" width="2" height="1" fill="#A0DCFF" />
<rect x="5" y="10" width="1" height="2" fill="#000000" />
<rect x="6" y="10" width="4" height="3" fill="#A0DCFF" />
<rect x="10" y="10" width="1" height="2" fill="#000000" />
<rect x="11" y="10" width="2" height="1" fill="#A0DCFF" />
<rect x="13" y="10" width="1" height="1" fill="#000000" />
<rect x="3" y="11" width="1" height="2" fill="#000000" />
<rect x="4" y="11" width="1" height="2" fill="#A0DCFF" />
<rect x="11" y="11" width="1" height="2" fill="#A0DCFF" />
<rect x="12" y="11" width="1" height="2" fill="#000000" />
<rect x="5" y="12" width="1" height="1" fill="#A0DCFF" />
<rect x="10" y="12" width="1" height="1" fill="#A0DCFF" />
<rect x="4" y="13" width="8" height="1" fill="#000000" />
</svg>